<svg xmlns="http://www.w3.org/2000/svg" viewBox="0 0 385.58 120.61"><title>sd_white</title><g id="Layer_2" data-name="Layer 2"><g id="Layer_1-2" data-name="Layer 1"><polygon points="61.91 25 48.73 42.33 39.62 42.33 39.62 54.32 22.29 77 22.29 25 61.91 25" style="fill:#fff"/><polygon points="84.19 49.76 84.19 104.24 37.14 104.24 50.32 86.9 66.86 86.9 66.86 65.14 78.55 49.76 84.19 49.76" style="fill:#fff"/><polygon points="69.33 25 96.57 25 96.57 17.57 118.86 33.66 96.57 49.76 96.57 42.33 76.76 42.33 29.71 104.24 0 104.24 0 86.9 22.29 86.9 69.33 25" style="fill:#f05623"/><path d="M130.12,27.58c0-5.4,5.69-10,12.39-10,6.33,0,12.81,2.88,13.1,10.58h-8.35c-.14-2.52-2.59-3.45-4.54-3.45-2.16,0-4.25.79-4.25,3.31,0,1.37,1.59,2.3,3.53,2.81l5.62,1.37c7.78,2,8.78,7.41,8.78,10.08,0,6.84-6.76,10.37-13.75,10.37-6.62,0-13.39-4-13.54-11.31h8.21c.22,2.38,3,4.39,6.19,4.25,2.45-.07,4.4-1.44,4.4-3.38.07-1.73-1.23-2.6-3.67-3.17l-4.61-1.15C130.91,35.5,130.12,31.54,130.12,27.58Z" style="fill:#fff"/><path d="M198.59,35c0-10.59,7.92-17.43,17.5-17.43s17.5,6.84,17.5,17.43-8,17.56-17.5,17.56S198.59,45.58,198.59,35Zm26.29,0a8.79,8.79,0,1,0-17.57,0,8.79,8.79,0,1,0,17.57,0Z" style="fill:#fff"/><path d="M247.34,51.92h-8.79V18.29h8.79v7.92c1.73-6.12,5.69-8.64,9.5-8.64a11.73,11.73,0,0,1,5.55,1.22l-1.52,7.92a12.52,12.52,0,0,0-5.11-.93c-6,0-8.42,5.33-8.42,14.26Z" style="fill:#fff"/><path d="M279.67,18.29h7.12v7.06h-7.12V51.92H271V25.35h-6.12V18.29H271V5.47h8.72Z" style="fill:#fff"/><path d="M307.53,17.57a17.37,17.37,0,0,1,14,6.55l-7,5.26a8.58,8.58,0,0,0-7-3.31c-4.9,0-9.43,3.45-9.43,8.93a9.27,9.27,0,0,0,9.43,9.21,8.64,8.64,0,0,0,7-3.38L321.57,46a17.45,17.45,0,0,1-14,6.63c-9.65,0-18.15-7.06-18.15-17.64S297.88,17.57,307.53,17.57Z" style="fill:#fff"/><path d="M378.45,18.29h7.13v7.06h-7.13V51.92h-8.72V25.35h-6.12V18.29h6.12V5.47h8.72Z" style="fill:#fff"/><path d="M180.52,17.57c-3.31,0-8.85,1.8-10.44,5.9V0H161.3V51.92h8.78V34c0-5.84,4.39-7.85,8.07-7.85a7.09,7.09,0,0,1,7.13,7.49l.07,41c-1.87-3.38-6.12-5.18-10.59-5.18-8.85,0-16.49,6.84-16.49,17.57s7.71,17.49,16.49,17.49c4.4,0,8.72-1.87,10.59-5.25v4.53h8.71V33.19C194.06,23.33,189.24,17.57,180.52,17.57ZM176.2,96.13c-4.89,0-8.85-3.67-8.85-9.22a8.68,8.68,0,0,1,8.85-9.07,9.15,9.15,0,0,1,0,18.29Z" style="fill:#fff"/><path d="M212,103.92h-8.71V70.29H212Z" style="fill:#fff"/><path d="M235.71,112.62c8.5,0,10.73-6.34,10.23-13.4-1.73,3.39-6.34,5.33-10.73,5.33-8.79,0-16.85-6.84-16.85-17.42,0-10.8,8.06-17.64,16.85-17.64,4.39,0,8.86,1.87,10.73,5.25V70.21h8.57V99c0,15-7.13,21.6-18.8,21.6a17.59,17.59,0,0,1-16.05-9.94c1.94-.93,5.18-2.66,7.12-3.6C228.22,110.39,232.18,112.62,235.71,112.62Zm.87-34.71a9.15,9.15,0,0,0,0,18.29A9.12,9.12,0,0,0,245.72,87C245.72,81.15,241.4,77.91,236.58,77.91Z" style="fill:#fff"/><path d="M271.27,103.92h-8.71V70.29h8.71Z" style="fill:#fff"/><path d="M293.29,70.21h7.13v7.05h-7.13v26.57h-8.72V77.26h-6.12V70.21h6.12V57.39h8.72Z" style="fill:#fff"/><path d="M331.66,99.51c-2.16,3.46-7.13,5-10.44,5A17,17,0,0,1,304.08,87a17,17,0,0,1,17.14-17.49c3,0,8,1.15,10.44,4.89V70.21h8.78v33.62h-8.78Zm-9.22-3.45c4.75,0,9.22-3.32,9.22-9.08a8.92,8.92,0,0,0-9.22-9.07,9.08,9.08,0,1,0,0,18.15Z" style="fill:#fff"/><path d="M349.65,18.29V36.22c0,5.83-3.6,7.85-7.27,7.85-3.1,0-6.41-2-6.41-7.49V18.29h-8.86V38.16c0,9.51,5.33,14.48,13.25,14.48a10.73,10.73,0,0,0,9.29-5.48v56.67h8.78V18.29Z" style="fill:#fff"/></g></g></svg>